<svg xmlns="http://www.w3.org/2000/svg" width="1280" height="640" viewBox="0 0 1280 640">
  <defs>
    <linearGradient id="background" x1="0" y1="0" x2="1" y2="1">
      <stop offset="0" stop-color="#0a0e16"/>
      <stop offset="1" stop-color="#0d1420"/>
    </linearGradient>
    <filter id="shadow" x="-20%" y="-20%" width="140%" height="140%">
      <feDropShadow dx="0" dy="16" stdDeviation="24" flood-color="#020617" flood-opacity="0.5"/>
    </filter>
  </defs>

  <rect width="1280" height="640" fill="url(#background)"/>
  <g stroke="#293449" stroke-width="1" opacity="0.28">
    <path d="M0 80H1280M0 160H1280M0 240H1280M0 320H1280M0 400H1280M0 480H1280M0 560H1280"/>
    <path d="M80 0V640M160 0V640M240 0V640M320 0V640M400 0V640M480 0V640M560 0V640M640 0V640M720 0V640M800 0V640M880 0V640M960 0V640M1040 0V640M1120 0V640M1200 0V640"/>
  </g>
  <circle cx="1120" cy="-60" r="300" fill="#d97757" opacity="0.08"/>
  <circle cx="660" cy="700" r="280" fill="#10b981" opacity="0.05"/>

  <g font-family="Arial, Helvetica, sans-serif">
    <rect x="72" y="68" width="42" height="42" rx="12" fill="#c15f3c"/>
    <rect x="83" y="80" width="20" height="4" rx="2" fill="#fff7ed"/>
    <rect x="83" y="88" width="16" height="4" rx="2" fill="#fed7aa"/>
    <rect x="83" y="96" width="12" height="4" rx="2" fill="#fdba74"/>
    <text x="130" y="98" fill="#f5b89f" font-size="22" font-weight="700">CLAUDE CODE SKILL</text>

    <text x="72" y="205" fill="#f8fafc" font-size="68" font-weight="700">Memory Playbook</text>
    <rect x="72" y="231" width="154" height="50" rx="14" fill="#3b1f1a" stroke="#d97757" stroke-width="2"/>
    <text x="149" y="266" fill="#fed7aa" font-size="25" font-weight="700" text-anchor="middle">CLAUDE</text>

    <text x="72" y="348" fill="#dbe4f0" font-size="27">Small context. Durable decisions.</text>
    <text x="72" y="388" fill="#94a3b8" font-size="23">Self-auditing project memory for Claude Code.</text>

    <g font-family="Menlo, Monaco, monospace" font-size="14" font-weight="700">
      <rect x="72" y="442" width="148" height="38" rx="19" fill="#111b2a" stroke="#263449"/>
      <text x="146" y="467" fill="#cbd5e1" text-anchor="middle">PLAIN MARKDOWN</text>
      <rect x="232" y="442" width="150" height="38" rx="19" fill="#111b2a" stroke="#263449"/>
      <text x="307" y="467" fill="#cbd5e1" text-anchor="middle">PROJECT-LOCAL</text>
      <rect x="394" y="442" width="140" height="38" rx="19" fill="#111b2a" stroke="#263449"/>
      <text x="464" y="467" fill="#cbd5e1" text-anchor="middle">SELF-AUDITING</text>
    </g>

    <text x="72" y="558" fill="#64748b" font-family="Menlo, Monaco, monospace" font-size="18">github.com/itsmynamee/</text>
    <text x="319" y="558" fill="#6ee7b7" font-family="Menlo, Monaco, monospace" font-size="18">memory-playbook</text>
  </g>

  <g filter="url(#shadow)">
    <rect x="690" y="64" width="518" height="512" rx="28" fill="#0f1725" stroke="#263449" stroke-width="2"/>
  </g>
  <g font-family="Arial, Helvetica, sans-serif">
    <text x="734" y="116" fill="#64748b" font-size="15" font-weight="700">MEMORY ARCHITECTURE</text>
    <text x="734" y="153" fill="#e2e8f0" font-size="25" font-weight="700">Keep the map small.</text>

    <rect x="734" y="188" width="430" height="68" rx="14" fill="#172033" stroke="#d97757" stroke-width="2"/>
    <rect x="756" y="208" width="28" height="28" rx="7" fill="#c15f3c"/>
    <path d="M764 216h12v3h-12zm0 6h12v3h-12zm0 6h8v3h-8z" fill="#ffedd5"/>
    <text x="800" y="219" fill="#f1f5f9" font-size="18" font-weight="700">MEMORY.md</text>
    <text x="800" y="241" fill="#94a3b8" font-size="14">A compact index, not a knowledge dump</text>

    <rect x="948" y="256" width="4" height="38" fill="#d97757"/>
    <rect x="837" y="292" width="224" height="4" fill="#d97757"/>
    <rect x="835" y="292" width="4" height="22" fill="#d97757"/>
    <rect x="1059" y="292" width="4" height="22" fill="#d97757"/>

    <rect x="734" y="312" width="206" height="70" rx="14" fill="#13231f" stroke="#10b981" stroke-width="2"/>
    <rect x="958" y="312" width="206" height="70" rx="14" fill="#13231f" stroke="#10b981" stroke-width="2"/>
    <text x="756" y="341" fill="#a7f3d0" font-size="17" font-weight="700">Domain A</text>
    <text x="756" y="364" fill="#6b8f85" font-size="14">Stable guidance</text>
    <text x="980" y="341" fill="#a7f3d0" font-size="17" font-weight="700">Domain B</text>
    <text x="980" y="364" fill="#6b8f85" font-size="14">Stable guidance</text>

    <rect x="1059" y="382" width="4" height="34" fill="#10b981"/>
    <rect x="958" y="414" width="206" height="70" rx="14" fill="#151d2b" stroke="#475569" stroke-width="2"/>
    <text x="980" y="443" fill="#e2e8f0" font-size="17" font-weight="700">Episode</text>
    <text x="980" y="466" fill="#718096" font-size="14">Detailed evidence</text>

    <rect x="734" y="516" width="430" height="2" fill="#263449"/>
    <circle cx="746" cy="546" r="5" fill="#34d399"/>
    <text x="760" y="551" fill="#94a3b8" font-size="15">Load details only when the task needs them.</text>
  </g>
</svg>
